<?xml version="1.0" encoding="utf-8"?>
<!-- Generator: Adobe Illustrator 23.0.6, SVG Export Plug-In . SVG Version: 6.00 Build 0)  -->
<svg version="1.1" id="Laag_1" xmlns="http://www.w3.org/2000/svg" xmlns:xlink="http://www.w3.org/1999/xlink" x="0px" y="0px"
	 viewBox="0 0 118.9151001 40.9824219" style="enable-background:new 0 0 118.9151001 40.9824219;" xml:space="preserve">
<path d="M0,30.7373047V10.2456055L17.7456055,0l17.7456055,10.2456055v20.4916992L17.7456055,40.9824219L0,30.7373047z
	 M17.7456055,38.784668L32.637207,30.1875L1.9023438,12.4423828v17.1953125L17.7456055,38.784668z M33.5883789,28.5400391
	V12.4423828l-13.9404297,8.0488281L33.5883789,28.5400391z M17.7456055,19.3925781l14.8916016-8.597168L17.7456055,2.1977539
	L2.8535156,10.7954102L17.7456055,19.3925781z"/>
<g>
	<path d="M50.2425842,28.9875336c-1.6450691,0-3.0548286-0.390089-4.2282372-1.1692219
		c-1.1734047-0.78018-1.9922791-1.8552799-2.4545326-3.2263451l1.5425797-0.8994026
		c0.3252525,1.1137943,0.9245033,1.9839134,1.7988052,2.6093121c0.8743057,0.6253986,1.9954185,0.9380989,3.3664856,0.9380989
		c1.3365555,0,2.3781891-0.2959671,3.1228104-0.8868542c0.7456665-0.5908852,1.1179771-1.375248,1.1179771-2.3520412
		c0-0.9422817-0.343029-1.6534367-1.028038-2.1334667c-0.685009-0.4789829-1.8155365-0.9767933-3.3926315-1.4902878
		c-1.8678284-0.617033-3.1008453-1.1137962-3.7011452-1.4902897c-1.3710632-0.8230572-2.056076-2.0131969-2.056076-3.5735559
		c0-1.5248013,0.5312767-2.7274904,1.5938263-3.6101599s2.3729591-1.3240042,3.9322701-1.3240042
		c1.4045334,0,2.6218643,0.363945,3.6499023,1.0918331c1.028038,0.7289343,1.7904358,1.6586657,2.2872009,2.7891932
		l-1.5164337,0.8481579c-0.8220139-1.9880981-2.2955704-2.9816236-4.4206696-2.9816236
		c-1.1137924,0-2.013195,0.274004-2.6982079,0.8220119c-0.6860542,0.5490541-1.028038,1.3114538-1.028038,2.2882471
		c0,0.8910351,0.3085175,1.5593128,0.9245033,2.0048313c0.6170311,0.4455166,1.6367035,0.8994026,3.0590134,1.3616524
		c0.6504974,0.2227592,1.117981,0.3817234,1.4003487,0.4758472c0.2834167,0.0941238,0.6944237,0.2489052,1.234066,0.4622517
		c0.5396385,0.2143917,0.9380951,0.4026394,1.1953659,0.5657864s0.5689278,0.3859062,0.9380989,0.6682758
		c0.3681297,0.2823715,0.6337662,0.5657883,0.7969131,0.8481579c0.1621017,0.2823715,0.3085175,0.6253986,0.4361038,1.028038
		c0.1286354,0.4026394,0.1934776,0.8356075,0.1934776,1.2978592c0,1.5248013-0.5574188,2.746315-1.6712151,3.6624508
		C53.5233116,28.5294666,52.0581245,28.9875336,50.2425842,28.9875336z"/>
	<path d="M60.8565788,12.7439079c-0.2405357,0.2405376-0.5312729,0.3597603-0.8743019,0.3597603
		s-0.6337662-0.1192226-0.8732567-0.3597603c-0.2405396-0.2394924-0.3597603-0.5312748-0.3597603-0.8743029
		c0-0.3419828,0.1192207-0.6337652,0.3597603-0.8732576c0.2394905-0.2405376,0.5302277-0.3597603,0.8732567-0.3597603
		s0.6337662,0.1192226,0.8743019,0.3597603c0.2394943,0.2394924,0.3597641,0.5312748,0.3597641,0.8732576
		C61.2163429,12.2126331,61.0960732,12.5044155,60.8565788,12.7439079z M59.1341209,28.679018V15.828021h1.696312v12.850997
		H59.1341209z"/>
	<path d="M78.1271973,15.5195055c1.440094,0,2.5998993,0.4622507,3.4825745,1.3877993
		c0.8826675,0.9255466,1.3239975,2.1763439,1.3239975,3.7523899v8.0193233h-1.696312v-8.0193233
		c0-1.1137943-0.2875977-1.9745026-0.8607101-2.583168c-0.5741501-0.6076183-1.3323669-0.9119511-2.2746506-0.9119511
		c-1.0625458,0-1.9243011,0.3555775-2.583168,1.0667324c-0.6599045,0.7111549-0.9893417,1.8207684-0.9893417,3.3277893v7.1199207
		h-1.696312v-8.0193233c0-1.1305275-0.2698212-1.9954185-0.8094635-2.5957165
		c-0.5406876-0.5992527-1.2727585-0.8994026-2.1983032-0.8994026c-1.028038,0-1.9012985,0.3597603-2.6208191,1.0792828
		c-0.7205658,0.7195225-1.0803299,1.8249493-1.0803299,3.315239v7.1199207h-1.696312V15.828021h1.696312v1.876195
		c0.9255447-1.4557762,2.2359543-2.1847105,3.9322739-2.1847105c1.8510895,0,3.1531372,0.780179,3.9071655,2.3394918
		C74.8893509,16.2996845,76.2771454,15.5195055,78.1271973,15.5195055z"/>
	<path d="M93.1116638,15.5195055c1.833313,0,3.3968124,0.6515436,4.6904831,1.9535856
		c1.2936783,1.302042,1.9399948,2.8958664,1.9399948,4.7804279c0,1.8845634-0.6463165,3.4783878-1.9399948,4.7804298
		c-1.2936707,1.302042-2.8571701,1.9535847-4.6904831,1.9535847c-2.2798843,0-4.0096664-0.9422798-5.192482-2.8268414v7.658514
		h-1.696312V15.828021h1.696312v2.5183268C89.1019974,16.4617863,90.8317795,15.5195055,93.1116638,15.5195055z
		 M89.3843689,25.8647251c0.9767914,0.9851589,2.1763458,1.4777393,3.5986557,1.4777393s2.6218643-0.4925804,3.5976105-1.4777393
		c0.9767914-0.9851589,1.4651871-2.1888943,1.4651871-3.6112061c0-1.4223099-0.4883957-2.6260452-1.4651871-3.6112041
		c-0.9757462-0.9851608-2.1753006-1.4777393-3.5976105-1.4777393s-2.6218643,0.4925785-3.5986557,1.4777393
		c-0.9767914,0.9851589-1.4651871,2.1888943-1.4651871,3.6112041
		C87.9191818,23.6758308,88.4075775,24.8795662,89.3843689,25.8647251z"/>
	<path d="M102.568985,28.679018V9.9170647h1.696312V28.679018H102.568985z"/>
	<path d="M117.1162949,15.828021h1.7988052l-5.4999542,14.0327692c-0.4978027,1.2685776-1.2037354,2.2662849-2.1209106,2.9952202
		c-0.9161377,0.72789-1.9399948,1.048954-3.0715637,0.9631958v-1.5938225
		c1.5425797,0.1715126,2.7159805-0.7195225,3.5212631-2.6720619l0.3346634-0.7969131l-5.757225-12.9283876h1.7988052
		l4.8316727,10.768775L117.1162949,15.828021z"/>
</g>
</svg>
